/* XPM */
static char *c5c9ae2dc3654dd2ac3228bce2a173c3[] = {
/* columns rows colors chars-per-pixel */
"64 64 242 2 ",
"   c #965D05",
".  c #9D6106",
"X  c #A56606",
"o  c #AC6B06",
"O  c #A8650B",
"+  c #B36E08",
"@  c #B57007",
"#  c #BC7507",
"$  c #BB7309",
"%  c #BD741C",
"&  c #BB7521",
"*  c #BE7B2C",
"=  c #CD7603",
"-  c #C2750C",
";  c #CC740A",
":  c #C57A0A",
">  c #CC7C0B",
",  c #D17701",
"<  c #DD7E01",
"1  c #D3770A",
"2  c #D47A0A",
"3  c #DD7E0C",
"4  c #C27111",
"5  c #C77912",
"6  c #E07F0B",
"7  c #C37E23",
"8  c #C37F2C",
"9  c #BA813D",
"0  c #BD8B3F",
"q  c #CF8009",
"w  c #DD8303",
"e  c #D5820B",
"r  c #DA850C",
"t  c #DD890A",
"y  c #CF8718",
"u  c #CF881F",
"i  c #D18314",
"p  c #DE8111",
"a  c #D68019",
"s  c #DA8C1D",
"d  c #E38302",
"f  c #E98704",
"g  c #E48A01",
"h  c #EC8A01",
"j  c #E3820E",
"k  c #EA860D",
"l  c #E48C0C",
"z  c #EC8D0D",
"x  c #F18C01",
"c  c #F88B07",
"v  c #F58D0E",
"b  c #F88E0E",
"n  c #EF9007",
"m  c #ED910E",
"M  c #F49005",
"N  c #F4920E",
"B  c #FA950C",
"V  c #E48512",
"C  c #E88712",
"Z  c #E78917",
"A  c #E98A15",
"S  c #E28A1F",
"D  c #EB8C19",
"F  c #F68F13",
"G  c #F88F11",
"H  c #F08E18",
"J  c #F59212",
"K  c #FC9415",
"L  c #FE9B13",
"P  c #F6931D",
"I  c #F9941B",
"U  c #C38027",
"Y  c #CB8127",
"T  c #C88825",
"R  c #CB8129",
"E  c #C88B2F",
"W  c #D88622",
"Q  c #D08920",
"!  c #DB8C24",
"~  c #DE8C2A",
"^  c #C48431",
"/  c #CE8732",
"(  c #C48A34",
")  c #CA8B32",
"_  c #C18A3A",
"`  c #D79335",
"'  c #DD953F",
"]  c #EE9020",
"[  c #E4912D",
"{  c #E9932C",
"}  c #F69520",
"|  c #F99720",
" . c #F99823",
".. c #F19528",
"X. c #F49A2E",
"o. c #E19335",
"O. c #EE9D3B",
"+. c #F39B31",
"@. c #F29E3A",
"#. c #BD8746",
"$. c #BC8D44",
"%. c #BF894A",
"&. c #BD8D54",
"*. c #BC905A",
"=. c #B39567",
"-. c #B09469",
";. c #BD9B6D",
":. c #AE9877",
">. c #C08641",
",. c #C68F47",
"<. c #C48E4D",
"1. c #CB9346",
"2. c #C5924D",
"3. c #CB954D",
"4. c #CD994F",
"5. c #DA9441",
"6. c #D39946",
"7. c #DB9847",
"8. c #D0934B",
"9. c #D6994C",
"0. c #DB9848",
"q. c #C59555",
"w. c #CB9759",
"e. c #C6995E",
"r. c #D39D55",
"t. c #D19B5A",
"y. c #E59C44",
"u. c #EE9F42",
"i. c #E29C48",
"p. c #DFA054",
"a. c #D2A15D",
"s. c #E5A04D",
"d. c #F0A64F",
"f. c #EFA954",
"g. c #E4A75D",
"h. c #EEAA59",
"j. c #C59761",
"k. c #C69B65",
"l. c #C69D6D",
"z. c #CB9F6A",
"x. c #CFA066",
"c. c #D0A264",
"v. c #DBA768",
"b. c #C8A377",
"n. c #CCA87C",
"m. c #ECAD61",
"M. c #E7B06E",
"N. c #ECB36F",
"B. c #E3B276",
"V. c #ECB470",
"C. c #EBB778",
"Z. c #AB9F8C",
"A. c #ACA08E",
"S. c #B9A287",
"D. c #B6A28A",
"F. c #BAA389",
"G. c #ACA293",
"H. c #B5AA9B",
"J. c #BCB09F",
"K. c #ACAAA6",
"L. c #AEADAB",
"P. c #B3B3B5",
"I. c #B3B6BA",
"U. c #B5B8BD",
"Y. c #C3A582",
"T. c #C9AC83",
"R. c #C0A789",
"E. c #C4AE8E",
"W. c #CEB38F",
"Q. c #D9B386",
"!. c #D2B48E",
"~. c #C9AF91",
"^. c #CEB593",
"/. c #CFB99F",
"(. c #D2B690",
"). c #D7BD9E",
"_. c #E9BE8B",
"`. c #CDB9A2",
"'. c #C0B6A8",
"]. c #CCBFAD",
"[. c #D3BEA4",
"{. c #CABEB0",
"}. c #E3C197",
"|. c #E6C399",
" X c #D3C0AA",
".X c #D8C3AB",
"XX c #D2C5B5",
"oX c #D8C6B1",
"OX c #D4C8B7",
"+X c #D7CABA",
"@X c #D8CABA",
"#X c #E5C7A2",
"$X c #E3CBAE",
"%X c #E3CEB5",
"&X c #E3D2BD",
"*X c #B6BBC3",
"=X c #B9BEC6",
"-X c #B5BECA",
";X c #BBC0C6",
":X c #BAC0C9",
">X c #C9C8C6",
",X c #C2C7CF",
"<X c #CFCCC8",
"1X c #D7CDC2",
"2X c #D8CFC3",
"3X c #DDD2C6",
"4X c #D6D1C9",
"5X c #DAD4CE",
"6X c #C5CBD4",
"7X c #C8CFD7",
"8X c #C2CCDA",
"9X c #C8CFD8",
"0X c #CCD0D6",
"qX c #CCD2DB",
"wX c #D7D4D1",
"eX c #DAD7D4",
"rX c #DAD8D6",
"tX c #D4D5D9",
"yX c #D7DADF",
"uX c #DCDCDC",
"iX c #E3D9CC",
"pX c #E0DAD3",
"aX c #E0DEDB",
"sX c #E3E1DE",
"dX c #CED7E0",
"fX c #D6DCE1",
"gX c #DBDEE3",
"hX c #DEE1E4",
"jX c #DEE3EA",
"kX c #DFE8F3",
"lX c #E6E6E5",
"zX c #E8E7E6",
"xX c #EAE9E7",
"cX c #E2E6EB",
"vX c #E5E9ED",
"bX c #EAE9E9",
"nX c #E2EAF3",
"mX c #EAEDF1",
"MX c #E2EDFB",
"NX c #ECF0F5",
"BX c #EAF1F9",
"VX c None",
/* pixels */
"VXVXVXVXVXVXVXVXVXVXVXVXVXVXVXVXVXVXVXVXVXVXVXVXVXVXVXVXVXVXVXVXVXVXVXVXVXVXVXVXVXVXVXVXVXVXVXVXVXVXVXVXVXVXVXVXVXVXVXVXVXVXVXVX",
"VXVXVXVXVXVXVXVXVXVXVXVXVXVXVXVXVXVXVXVXVXVXVXVXVXVXVXVXVX      .     VXVXVXVXVXVXVXVXVXVXVXVXVXVXVXVXVXVXVXVXVXVXVXVXVXVXVXVXVX",
"VXVXVXVXVXVXVXVXVXVXVXVXVXVXVXVXVXVXVXVXVXVXVXVX  X o @ # # : : q # # # @ o X . VXVXVXVXVXVXVXVXVXVXVXVXVXVXVXVXVXVXVXVXVXVXVXVX",
"VXVXVXVXVXVXVXVXVXVXVXVXVXVXVXVXVXVXVXVXVX. o # q t t l g g g g g g g g l t e q # + . VXVXVXVXVXVXVXVXVXVXVXVXVXVXVXVXVXVXVXVXVX",
"VXVXVXVXVXVXVXVXVXVXVXVXVXVXVXVXVXVX  X # q r g g g t y T ( 0 $.$.0 ( T y t g g t t q # X   VXVXVXVXVXVXVXVXVXVXVXVXVXVXVXVXVXVX",
"VXVXVXVXVXVXVXVXVXVXVXVXVXVXVXVXVXX # t t g w y 0 -.A.K.P.U.:X:X:X:XU.P.K.Z.-.0 y g g t t # o VXVXVXVXVXVXVXVXVXVXVXVXVXVXVXVXVX",
"VXVXVXVXVXVXVXVXVXVXVXVXVXVXVXX # t l g t 0 :.L.:X6XtXuXuXlXlXlXlXlXsXhXuXtX6X:XK.:.0 t g t e # X VXVXVXVXVXVXVXVXVXVXVXVXVXVXVX",
"VXVXVXVXVXVXVXVXVXVXVXVXVXVXo q t g t $.A.*X0XuXhXlXvXvXhXuX4X4X4XwXuXhXvXvXbXhXuX7XU.G.$.t g t q o VXVXVXVXVXVXVXVXVXVXVXVXVXVX",
"VXVXVXVXVXVXVXVXVXVXVXVX. # t l d ( Z.=XtXsXcXvXuXXXY.*.* * & % % & * 9 *.Y.XXuXcXzXsXyX=XG.) d l t # . VXVXVXVXVXVXVXVXVXVXVXVX",
"VXVXVXVXVXVXVXVXVXVXVXX : l g t =.*XtXsXzXcXXXl.* 4 ; 3 Z D H H H H D t 3 > 4 * ;.XXjXzXaXtX*X=.t g l : X VXVXVXVXVXVXVXVXVXVXVX",
"VXVXVXVXVXVXVXVXVXVXo q l g u G.6XaXlXcX].%.$ 2 Z P | |  .} I } P P P | P  .P D 2 $ %.].cXlXaX6XG.u g l q X VXVXVXVXVXVXVXVXVXVX",
"VXVXVXVXVXVXVXVXVXX > l g E L.tXsXvX4X&.4 j } | I P P P P P P P I P I I P I P P  .P j 4 &.4XvXaXtXL.E g l q X VXVXVXVXVXVXVXVXVX",
"VXVXVXVXVXVXVXVXX q l g ( I.yXlXjX~.% 3 } I I P P P P P P P P I P P P P I P I I P I I } 3 % ~.cXlXuXI.( g l q X VXVXVXVXVXVXVXVX",
"VXVXVXVXVXVXVXVX: l h E U.uXsXhXj.; H | P P P P P P P I I P P P P P P P P P P P P P P P | H ; j.hXhXuXU.E h l q VXVXVXVXVXVXVXVX",
"VXVXVXVXVXVXVX# l g u P.uXlXuX$.2 | I P P P } P I P P I I } P I P P P P P P P I P P P P I I | 1 #.uXlXuXP.Q g l : VXVXVXVXVXVXVX",
"VXVXVXVXVXVX@ l l t H.yXlXuX#.j | P P P P P I P } } I P } I P P P P | I | I P | I } P P P P } } r 0 uXlXyXH.t l t @ VXVXVXVXVXVX",
"VXVXVXVXVXVXe l f ;.dXlXgX<.6 | P P } } P } } P P P P } P P I } P P } I P } P I } P P P H } } I | 6 <.lXsXtX;.f l e VXVXVXVXVXVX",
"VXVXVXVXVX: l h / ,XaXvXl.3 | P P P I K K K I K K K K K K K K K K K K K K K K K K K K K K K K K K I 3 l.vXaX,X) f l : VXVXVXVXVX",
"VXVXVXVX+ t l l J.gXvX).1 I P P I K H o.' ' 5.5.5.5.5.5.5.5.5.5.5.5.5.5.5.5.5.5.5.5.5.' 7.5.5.5.' 5...1 [.vXfXJ.t l t + VXVXVXVX",
"VXVXVXVX: l h 3.qXlXrX8 P P P I H w.H.U.=X=X=X=X;X;X=X=X=X=X=X;X=X=X;X=X=X=X=X=X=X=X;X;X=X=X=X=X=X-X7.v 7 eXlXqXq.h m : VXVXVXVX",
"VXVXVXVXt m t '.hXcXz.6 | P I ] F.8XhXzXxXxXxXxXbXbXbXbXbXbXbXbXbXbXxXxXvXbXbXbXbXbXxXxXzXbXbXbXxXlX7.K j z.cXlX'.t m r VXVXVXVX",
"VXVXVX: l h 1.qXlX2X3 } P P F R.fXbXzXzXzXzXzXzXbXlXlXzXzXlXzXzXzXzXzXzXzXlXzXzXlXlXlXxXzXzXzXzXlXcX7.F  .3 1XlXqX1.x l : VXVXVX",
"VXVXVXe m g E.hXcXx.k } P K r.dXbXzXvXzXzXlXzXzXlXzXvXlXzXlXzXzXzXlXzXlXlXzXvXlXzXzXzXzXlXvXzXzXzXcX7.F ..k x.cXhXE.g m e VXVXVX",
"VXVX$ l n s >XlX5XW I P P H `.vXzXzXlXzXlXzXlXzXzXzXzXzXlXzXzXzXlXzXlXzXzXzXzXzXlXzXzXzXzXzXzXlXzXcX7.F } P W 5XlX>Xs n l $ VXVX",
"VXVX> m x 4.yXcX!.k | P K [ rXbXzXlXzXvXvXzXvXbXbXzXbXbXvXzXvXzXvXvXlXlXbXzXvXbXvXvXbXbXvXbXvXzXbXcX0.F P } k !.vXfX4.h m > VXVX",
"VXVXe m g T.jXhX9.F } P F ' yXlXsXlXsXlXsXsXlXaXlXaXaXlXsXsXlXaXsXlXlXsXlXaXsXlXsXsXsXsXlXsXsXsXsXgX7.F } } F 9.hXjXT.h m e VXVX",
"VXVXt N l ].cXeX! I P P I S 8 * * * * * * * * 8 * 8 * * * * * 8 8 * * * * * * * * * * 8 8 * * * 8 8 S P P I I ! 5XcX{.l N l VXVX",
"VXVXz n s <XvX.XC | P P } H A A Z Z A A Z Z A A A Z Z Z A Z A A A A A Z Z Z Z Z Z C Z C C Z Z A C A H P P P | C .XcX<Xs n l VXVX",
"VX- m n ` tXcXQ.k | P I P P K I I K K I I K K I I F K I I K K I K I I K K I K I I K I I I K K } } I } P P P  .z Q.cXtX` M z - VX",
"VX> m x 6.fXcXv.v | P P K o.F.S.S.S.S.F.S.F.S.F.F.F.S.S.S.F.S.S.S.F.S.S.S.S.S.S.S.S.S.S.S.j.o.F P P P P P P I v v.jXfX6.x m > VX",
"VX> J x r.gXjXp.G } P P F 5.dXgXfXfXfXfXfXfXfXfXfXfXfXfXfXfXfXfXfXfXfXfXfXfXfXfXgXyXfXyXyX9X*Xl.H I P I I P P F p.cXgXr.x N > VX",
"VXe N x a.jXhXi.G } P P I ~ aXbXzXzXbXbXzXzXbXbXzXbXbXbXzXbXbXbXbXzXxXbXxXbXbXzXbXbXbXbXbXbXlXqXY.F P P P P } J i.hXjXc.x N e VX",
"VXe J x a.jXhXy.F P P P | 6 ).BXlXlXlXzXlXzXvXlXzXzXlXbXzXzXzXlXzXzXlXvXzXlXzXvXzXvXzXzXlXlXvXbXdXt.K I P P P F y.sXhXa.x J e VX",
"VXe N x r.hXlXy.G P I P } H / sXvXlXzXzXvXlXzXlXzXvXlXlXzXvXlXzXlXzXzXlXzXzXzXzXlXlXzXlXzXvXzXlXvX{.D I P P P F y.hXjXt.x F e VX",
"VXe N M 6.jXcXs.F P P P P } 6 <.lXNXbXzXzXzXlXlXlXzXlXlXlXzXzXlXzXlXlXzXzXlXlXzXlXlXlXlXzXzXzXzXvXrXo.I I P } F s.jXhX9.M J > VX",
"VX5 J n ` yXjXg.v } P P P P } 3 8 [.aXvXmXmXmXmXvXmXmXmXvXmXvXmXmXmXmXvXmXvXmXmXmXmXmXvXvXzXzXlXbXcX0.F } P } v g.vXgX` M J > VX",
"VXVXN B ! 5XkXB.b P P | P P P P Z ; * #.<.%.%.%.<.%.%.%.<.%.%.%.%.<.%.%.%.%.%.%.%.%.%.%.3XmXzXzXxXcX0.v } I } v B.nXwXs B N VXVX",
"VXVXN B V oXnX}.F P P P P P P P } ..Z 6 3 V 3 p 3 p p p p V 3 p 3 p p V p p p p V 6 p 1 oXmXlXzXlXcX0.F } P I v ).nXoXl B N VXVX",
"VXVXm L f W.MX&XH P P P P I K K K K K K K K K I K K I I K K I K K I K K K K I K K K K k oXmXlXvXxXcX7.F } H } H &XnX(.f L z VXVX",
"VXVXr L c t.jXuXO.K P P I { j.j.j.j.j.j.j.e.k.j.j.j.e.k.j.j.j.j.j.j.j.j.k.j.j.j.j.j.j.j.4XmXzXlXxXcX7.v } I I O.uXcXa.h L l VXVX",
"VXVX> L B ! rXkXM.v } I F 7.9X0X0X9X9X9X9X0X9X9X9X9X9X0X9X9X9X9X0X9X9X9X0X9X9X0X9XqX0XqXlXzXlXzXzXlX5.v P } v M.nXeX! N L > VXVX",
"VXVXVXF B f  XkX$XF } } v 7.lXxXbXbXbXbXbXbXbXbXbXbXbXbXbXbXbXbXbXbXbXbXbXvXbXbXbXbXbXzXvXlXzXlXvXaX~ I P } F $XmX[.d L N VXVXVX",
"VXVXVXz L x r.jXhXu.F } G 7.jXxXlXlXlXlXlXlXzXzXlXlXlXlXzXlXlXzXlXlXzXzXlXlXlXlXlXlXzXlXlXzXzXzXNX.XV } } F u.sXjXr.x L z VXVXVX",
"VXVXVX> L L r +XnX|.v } G 0.jXxXzXzXzXzXvXlXzXzXlXzXzXzXzXzXzXvXzXzXzXzXzXlXzXzXlXzXlXzXzXlXzXzXmX8.C I } F }.kX1Xp B L > VXVXVX",
"VXVXVXVXN L h a.kXsXO.F F 7.hXlXlXzXlXlXzXzXlXlXlXlXlXzXlXzXlXzXlXlXzXlXlXlXlXlXlXlXlXlXlXlXzXBXn.3 } } F u.aXkXc.h L J VXVXVXVX",
"VXVXVXVXe L K 3 @XkX#XP I 0.vXNXmXmXmXmXmXmXmXmXmXmXmXmXmXmXmXmXmXNXmXmXmXmXmXmXmXNXmXmXmXNXsXl.; P P } F #XmX1Xr B L r VXVXVXVX",
"VXVXVXVXVXF L h 8.lXjXm.c ' OX+X@X@X@X+X@X@X@X@X+X+X@X@X@X@X@X@X@X@X+X+X@X@X@X@X@X@X+X@X.Xb.8 1 H | } v m.jXcX8.h L F VXVXVXVXVX",
"VXVXVXVXVX> L L < !.nXpX+.V 5 4 4 4 4 4 4 4 4 4 4 4 4 4 4 4 4 4 4 4 4 4 4 4 4 4 4 4 4 4 - 1 A P I H I +.pXvXW.< L L > VXVXVXVXVX",
"VXVXVXVXVXVXm L B a +XnX%XP H P P H P P H ] P H } H } H H } H ] } H P H H P H P H P } H P } I P } I H &XnX+Xi b L m VXVXVXVXVXVX",
"VXVXVXVXVXVXVXB L z / uXnX#XF P } P P P P } P P P P P } P I } I P } P P } P } P } P P I P P P P I F #XnXrX/ n L B VXVXVXVXVXVXVX",
"VXVXVXVXVXVXVX> B L g 1.sXkX|.J P P P P P P P P P P P P P P P P P P P P P P P P P P P P P P } I F |.vXhX,.f L L > VXVXVXVXVXVXVX",
"VXVXVXVXVXVXVXVXV L L < 2.hXnX#XP K P P I P P P P P P P P P P P P P P P P P P } P P P P P } G P #XkXhX3.d L L r VXVXVXVXVXVXVXVX",
"VXVXVXVXVXVXVXVXVXC L L < <.uXmX&X@.b P } P I P P I } P I P } P I I } P P I P I P P P P P v @.&XMXuX,.< L L C VXVXVXVXVXVXVXVXVX",
"VXVXVXVXVXVXVXVXVXVXz L L d ^ 4XMXaXN.I G P P P P P I P I P I P P P } I P I P P P } } G P V.aXMX2X^ d L L z VXVXVXVXVXVXVXVXVXVX",
"VXVXVXVXVXVXVXVXVXVXVXl L L f 5 W.cXnX%Xd.J G I } } I P } P P I P P I P P P P } I G F d.%XnXcX^.5 f K L l VXVXVXVXVXVXVXVXVXVXVX",
"VXVXVXVXVXVXVXVXVXVXVXVXp L L z , <.@XMXnX$Xh.} v G P I } } } } } } } } P P G G } h.$XvXMX+X2.= v L L p VXVXVXVXVXVXVXVXVXVXVXVX",
"VXVXVXVXVXVXVXVXVXVXVXVXVX- L L I d 5 k.2XMXMXiX_.f.X.I G b G G b b b G P X.d._.iXMXMX2Xk.> d L L L 4 VXVXVXVXVXVXVXVXVXVXVXVXVX",
"VXVXVXVXVXVXVXVXVXVXVXVXVXVXVXm L L N w 5 q.[.gXMXMXsX&X#X_.C.V.N.C._.#X&XlXnXMXhX[.q.- < J L L m VXVXVXVXVXVXVXVXVXVXVXVXVXVXVX",
"VXVXVXVXVXVXVXVXVXVXVXVXVXVXVXVX4 B L L N w = U e.^.4XgXnXMXMXMXMXMXMXkXgX2X/.e.U = w F L L B 4 VXVXVXVXVXVXVXVXVXVXVXVXVXVXVXVX",
"VXVXVXVXVXVXVXVXVXVXVXVXVXVXVXVXVXVX> K L L B z < , - 7 _ 2.j.k.k.j.2._ 7 - , < z K L L J > VXVXVXVXVXVXVXVXVXVXVXVXVXVXVXVXVXVX",
"VXVXVXVXVXVXVXVXVXVXVXVXVXVXVXVXVXVXVXVX$ m L L L L J z l g < < w w d f z B L L L L m $ VXVXVXVXVXVXVXVXVXVXVXVXVXVXVXVXVXVXVXVX",
"VXVXVXVXVXVXVXVXVXVXVXVXVXVXVXVXVXVXVXVXVXVXVX- l K L L L L L L L L L L L L J C - VXVXVXVXVXVXVXVXVXVXVXVXVXVXVXVXVXVXVXVXVXVXVX",
"VXVXVXVXVXVXVXVXVXVXVXVXVXVXVXVXVXVXVXVXVXVXVXVXVXVXVXO 4 > r p p r > 4 O VXVXVXVXVXVXVXVXVXVXVXVXVXVXVXVXVXVXVXVXVXVXVXVXVXVXVX",
"VXVXVXVXVXVXVXVXVXVXVXVXVXVXVXVXVXVXVXVXVXVXVXVXVXVXVXVXVXVXVXVXVXVXVXVXVXVXVXVXVXVXVXVXVXVXVXVXVXVXVXVXVXVXVXVXVXVXVXVXVXVXVXVX"
};
