/* XPM */
static char *_6c240a3eeb541ede5c76cac4b7c492f[] = {
/* columns rows colors chars-per-pixel */
"32 32 161 2 ",
"   c #B26E05",
".  c #BE7403",
"X  c #B77208",
"o  c #C17400",
"O  c #C87700",
"+  c #C57906",
"@  c #CC7B02",
"#  c #C57A0A",
"$  c #D37E00",
"%  c #C27714",
"&  c #D58105",
"*  c #DB8402",
"=  c #D48208",
"-  c #DC880B",
";  c #D38714",
":  c #DE8212",
">  c #DC851D",
",  c #DD8D19",
"<  c #E18501",
"1  c #E88600",
"2  c #ED8902",
"3  c #E5870B",
"4  c #EA850B",
"5  c #E38B0D",
"6  c #ED8A0C",
"7  c #F18200",
"8  c #F28B01",
"9  c #F88D01",
"0  c #F38B0D",
"q  c #F98D0C",
"w  c #F6920B",
"e  c #FA920C",
"r  c #E68B14",
"t  c #ED8D12",
"y  c #E1861A",
"u  c #E38D1A",
"i  c #EC8F1E",
"p  c #F58E11",
"a  c #F98F11",
"s  c #F28F19",
"d  c #EE9114",
"f  c #EF901E",
"g  c #F79117",
"h  c #FB9113",
"j  c #F6941E",
"k  c #FA941A",
"l  c #FD981E",
"z  c #CC8C2B",
"x  c #DB8620",
"c  c #DD8925",
"v  c #D5882B",
"b  c #D98A2C",
"n  c #DD902A",
"m  c #D58B31",
"M  c #D88C30",
"N  c #DF9339",
"B  c #DE9B3B",
"V  c #E38D26",
"C  c #E79526",
"Z  c #E3912C",
"A  c #EA932C",
"S  c #F59522",
"D  c #F89620",
"F  c #F99823",
"G  c #F39728",
"H  c #E59536",
"J  c #E99632",
"K  c #E89837",
"L  c #E39639",
"P  c #E99939",
"I  c #F69E34",
"U  c #D29244",
"Y  c #DE9641",
"T  c #DD9846",
"R  c #D09349",
"E  c #DB9B4F",
"W  c #C79A55",
"Q  c #D49C53",
"!  c #DB9C50",
"~  c #D29D5D",
"^  c #E39B45",
"/  c #CEA05C",
"(  c #E4A247",
")  c #F4A343",
"_  c #F1A64B",
"`  c #EEAC5D",
"'  c #F4AD58",
"]  c #C59F66",
"[  c #D29E60",
"{  c #D0A067",
"}  c #D1A26A",
"|  c #C5A777",
" . c #CFAD7F",
".. c #D1A776",
"X. c #DAAF70",
"o. c #D3AC79",
"O. c #D7B07C",
"+. c #DDB47B",
"@. c #F2B368",
"#. c #CFAC82",
"$. c #C4AD8A",
"%. c #D1AE84",
"&. c #D1B083",
"*. c #C7B291",
"=. c #CFB695",
"-. c #DABC95",
";. c #D0BC9F",
":. c #EDBF88",
">. c #C5B6A1",
",. c #D4BFA6",
"<. c #DAC19E",
"1. c #EDC28F",
"2. c #E3C39D",
"3. c #DCC2A3",
"4. c #D1C1AA",
"5. c #D8C5AC",
"6. c #DDC8AF",
"7. c #C7C3BC",
"8. c #CBC2B8",
"9. c #D5C4B0",
"0. c #D1C6B8",
"q. c #D5C9BB",
"w. c #DECCB8",
"e. c #E1C4A2",
"r. c #EBCAA4",
"t. c #E3C8A8",
"y. c #E5CEB4",
"u. c #E7D4BE",
"i. c #CDCAC7",
"p. c #C8CBCE",
"a. c #D9CFC3",
"s. c #D3CFC9",
"d. c #D7D1C9",
"f. c #DFD6CC",
"g. c #D4D3D2",
"h. c #D9D7D5",
"j. c #DBD8D7",
"k. c #D3D6DB",
"l. c #DEDEDD",
"z. c #E1D2C1",
"x. c #E0D7CC",
"c. c #E4DACD",
"v. c #E0DFDE",
"b. c #CFDAE8",
"n. c #D5DAE2",
"m. c #D9DEE3",
"M. c #D4DEED",
"N. c #D9DFE8",
"B. c #D7E0EC",
"V. c #D9E0E9",
"C. c #D7E3F3",
"Z. c #DDE6F4",
"A. c #D9E6F8",
"S. c #E2E3E5",
"D. c #EBE8E6",
"F. c #E3E8EF",
"G. c #EAEAE9",
"H. c #E2E9F0",
"J. c #E8EEF3",
"K. c #ECF3FB",
"L. c None",
/* pixels */
"L.L.L.L.L.L.L.L.L.L.L.L.L.L.L.L.L.L.L.L.L.L.L.L.L.L.L.L.L.L.L.L.",
"L.L.L.L.L.L.L.L.L.L.L.  o O @ @ @ @ O o   L.L.L.L.L.L.L.L.L.L.L.",
"L.L.L.L.L.L.L.L.L.. @ = z W | $.$.| W z = @ o L.L.L.L.L.L.L.L.L.",
"L.L.L.L.L.L.L.X $ ; ] 7.b.M.n.k.k.n.M.b.7.] ; $ X L.L.L.L.L.L.L.",
"L.L.L.L.L.L.+ * W p.C.q...U v > x v U ..q.C.p.W * # L.L.L.L.L.L.",
"L.L.L.L.L.@ - $.C.q.R : 6 p k k k k h 4 : R q.C.*.- @ L.L.L.L.L.",
"L.L.L.L.@ - >.A.o.: p k D j j j g j j D l p : o.A.>.- @ L.L.L.L.",
"L.L.L.# < *.Z.~ 4 F F D j j j j D S j j S D D 4 ~ A.*.< # L.L.L.",
"L.L.L.< / A.} 0 l a a a a a a a a a a 0 a a a k 7 } Z.~ < L.L.L.",
"L.L.= , k.,.4 l Z } #.#.#.#.#.#.#.&.&.#.#. .#.#.&.y ,.k., & L.L.",
"L.L.< O.N.Z h L i.F.F.F.H.H.H.H.F.F.H.H.H.H.H.H.F.J V N.o.1 L.L.",
"L.= 5 g.-.0 g 5.K.D.G.G.G.G.G.G.G.G.G.G.G.G.G.G.S.P 0 -.g.5 = L.",
"L.< B B.^ e J h.v.l.v.v.v.v.v.v.l.l.v.l.v.v.v.v.j.K a ^ B.B < L.",
"L.1 X.j.f k f x x x x > x x x > x x x x x > x v v f k i j.X.1 L.",
"L.2 -.w.p k G E ! ! ! E ! E E E E E ! ! E E T s h j j p w.-.2 L.",
"L.2 5.3.0 k J n.N.N.B.B.B.V.B.V.V.V.B.B.V.B.N.8.J k D 0 e.5.2 L.",
"L.8 5.e.q S t e.K.G.G.G.G.G.G.G.G.G.G.G.G.G.D.J.9.s D q 2.5.2 L.",
"L.8 ,.t.p j k c ,.S.S.S.S.S.S.S.S.S.S.S.V.S.D.G.S.J k 0 t.<.8 L.",
"L.8 +.z.p k k h 4 b M M M M v M M M M M b m x.J.S.K g g z.+.8 L.",
"L.8 ^ l.G g S Y Y N N N N N N N N N N L N N x.G.v.K a G l.( 8 L.",
"L.6 d j.' q P k.n.n.n.n.n.n.n.n.n.n.n.n.n.n.S.G.v.K e ` h.d 6 L.",
"L.L.9 -.y.q P v.G.D.D.D.D.D.D.D.G.G.G.G.D.D.S.K.t.t a y.-.9 L.L.",
"L.L.w C m.) A H.J.J.J.J.J.J.J.J.J.J.J.J.J.J.J.a.N q _ n.C w L.L.",
"L.L.L.9 &.c.i { } } { { } } } { { { } } { { Q > g g c.O.9 L.L.L.",
"L.L.L.t 8 q.r.7 0 t 6 6 0 0 6 0 0 6 6 6 0 6 p k 0 r.q.8 d L.L.L.",
"L.L.L.L.w r s.r.a g F D D D D D D D D D D F k 0 r.s.r w L.L.L.L.",
"L.L.L.L.L.w r q.u.I q g j D j j j j S j g q I u.0.r w L.L.L.L.L.",
"L.L.L.L.L.L.w 6  .h.1.I a 0 a p a a q p I 1.h. .2 a L.L.L.L.L.L.",
"L.L.L.L.L.L.L.t 9 n =.d.y.:.@.' ' @.:.y.d.=.n 9 t L.L.L.L.L.L.L.",
"L.L.L.L.L.L.L.L.% w 8 u Q &.,.4.,.;.%.Q u 8 w % L.L.L.L.L.L.L.L.",
"L.L.L.L.L.L.L.L.L.L.L.3 8 7 2 2 2 8 7 8 3 L.L.L.L.L.L.L.L.L.L.L.",
"L.L.L.L.L.L.L.L.L.L.L.L.L.L.L.L.L.L.L.L.L.L.L.L.L.L.L.L.L.L.L.L."
};
