/* XPM */
static char *d84845ee987c4f699bcff85803dd9310[] = {
/* columns rows colors chars-per-pixel */
"16 16 147 2 ",
"   c #BE6B00",
".  c #C07603",
"X  c #C67B0F",
"o  c #DF8000",
"O  c #D7800B",
"+  c #D5850E",
"@  c #D5850F",
"#  c #D9891E",
"$  c #E88601",
"%  c #EF890F",
"&  c #EF8A0F",
"*  c #F18504",
"=  c #F18604",
"-  c #FA8700",
";  c #FA8800",
":  c #FC8D07",
">  c #F68B0B",
",  c #F1890C",
"<  c #FC8D08",
"1  c #FC8F0D",
"2  c #E28C13",
"3  c #E58E16",
"4  c #EF8A11",
"5  c #F78F12",
"6  c #F28F18",
"7  c #F08F1B",
"8  c #E9931E",
"9  c #F79219",
"0  c #F6921A",
"q  c #F4931F",
"w  c #FA951B",
"e  c #CD8F31",
"r  c #CD8F32",
"t  c #D29233",
"y  c #D29234",
"u  c #DC9035",
"i  c #E08E21",
"p  c #ED9123",
"a  c #E99420",
"s  c #F09120",
"d  c #F69522",
"f  c #F99925",
"g  c #F59B2F",
"h  c #EB9631",
"j  c #EA9735",
"k  c #E99736",
"l  c #E9993A",
"z  c #EC9D3F",
"x  c #F19A32",
"c  c #F19A33",
"v  c #D79444",
"b  c #D99340",
"n  c #D99441",
"m  c #D99442",
"M  c #D89543",
"N  c #C99D57",
"B  c #DE9F55",
"V  c #E69C42",
"C  c #E49E42",
"Z  c #E59F42",
"A  c #E69E48",
"S  c #E39F4F",
"D  c #E39F50",
"F  c #E6A042",
"G  c #E7A142",
"H  c #EAA047",
"J  c #E4A04F",
"K  c #E8A14B",
"L  c #EFA54E",
"P  c #EFA64F",
"I  c #F3A84E",
"U  c #E4A050",
"Y  c #E5A253",
"T  c #E4A356",
"R  c #E4A559",
"E  c #E0A75C",
"W  c #D8A964",
"Q  c #D9AA65",
"!  c #DCAA70",
"~  c #DFAE73",
"^  c #DFAE75",
"/  c #DFAF75",
"(  c #DFB27D",
")  c #E4AF67",
"_  c #E8AD66",
"`  c #E2AB6B",
"'  c #E6AD6A",
"]  c #E3B06E",
"[  c #E6B06C",
"{  c #E4AF72",
"}  c #E6B478",
"|  c #E5B77F",
" . c #CAB088",
".. c #DDB280",
"X. c #DDB483",
"o. c #D7B58E",
"O. c #DCB78B",
"+. c #DBB989",
"@. c #DFBA8A",
"#. c #DBB88E",
"$. c #DCB88D",
"%. c #DFBB8C",
"&. c #CCB594",
"*. c #DBB991",
"=. c #DABC9A",
"-. c #E3B782",
";. c #E3B981",
":. c #E5B980",
">. c #E3BA84",
",. c #E5BA84",
"<. c #E5BB87",
"1. c #E6BB87",
"2. c #E7BC87",
"3. c #E2BB88",
"4. c #E2BB89",
"5. c #E5BE8D",
"6. c #CEBFA7",
"7. c #CEBFA8",
"8. c #E9C190",
"9. c #D6C1A2",
"0. c #D5C2A7",
"q. c #DFC7AA",
"w. c #DFC7AB",
"e. c #DFC8AC",
"r. c #D5C4B0",
"t. c #D3C7B7",
"y. c #DDC9B1",
"u. c #DECAB2",
"i. c #E2E0DF",
"p. c #DCEAF8",
"a. c #E3E2E0",
"s. c #E3E2E2",
"d. c gray89",
"f. c #E2E4E5",
"g. c #E2E4E6",
"h. c #E5E7E8",
"j. c #E4E7EA",
"k. c #E4E7EB",
"l. c #E5E8EC",
"z. c #E2EDF4",
"x. c #E2EFF8",
"c. c #E0ECFB",
"v. c #E2F0F8",
"b. c #E3F1FF",
"n. c #E5F3FF",
"m. c #E0F8FF",
"M. c None",
/* pixels */
"M.M.M.M.M.M.  . .   M.M.M.M.M.M.",
"M.M.M.M.X N  .&.&. .N X M.M.M.M.",
"M.M.M.e 6.o.S k k D o.6.e M.M.M.",
"M.M.t t.l - < 1 1 : ; k r.y M.M.",
"M.+ 0.h p T S J J D Y V B 9.@ M.",
"M.W { z p.v.x.x.x.x.z.m.:.` W M.",
"o +.x A ..~ / / { / / ( K c +.o ",
"2 %.0 R =.O.#.#.%.o.*.! 6 d 4.2 ",
"3 4.0 H i.l.k.k.k.k.h.b.} 5 4.2 ",
"$ :.g 6 u M b b m m v s.8.q >.$ ",
"M.' P | c.s.h.g.g.g.s.n._ P ) M.",
"M.a >.' y.w.w.w.w.w.y.X.s 5.8 M.",
"M.M.F ;., = 4 4 4 4 = > 2.F M.M.",
"M.M.M.Z >.I f w w f I <.Z M.M.M.",
"M.M.M.M.i E ] [ [ ] E i M.M.M.M.",
"M.M.M.M.M.M.O # # O M.M.M.M.M.M."
};
